# xmcd CD database file
#
# Track frame offsets:
#	150
#	5437
#	78517
#	151787
#	171750
#
# Disc length: 3742 seconds
#
# Revision: 0
# Processed by: cddbd v1.5.1PL0 Copyright (c) Steve Scherf et al.
# Submitted via: CDex 1.50Beta7
#
DISCID=2a0e9c05
DTITLE=Tisziji Munoz - Divine Radiance
DYEAR=1900
DGENRE=Jazz
TTITLE0=Moment of Truth
TTITLE1=Visiting This Planet - Leaving This Planet
TTITLE2=Initiation By Fire
TTITLE3=Fatherhood
TTITLE4=Divine Radiance
EXTD=
EXTT0=
EXTT1=
EXTT2=
EXTT3=
EXTT4=
PLAYORDER=
